HIERARCHY
ROOT Hips
{
	OFFSET 0.00000 0.00000 0.00000
	CHANNELS 6 Xposition Yposition Zposition Zrotation Yrotation Xrotation 
	JOINT LHipJoint
	{
		OFFSET 0 0 0
		CHANNELS 3 Zrotation Yrotation Xrotation
		JOINT LeftHip
		{
			OFFSET 1.41496 -1.84582 0.78394
			CHANNELS 3 Zrotation Yrotation Xrotation
			JOINT LeftKnee
			{
				OFFSET 2.58040 -7.08960 0.00000
				CHANNELS 3 Zrotation Yrotation Xrotation
				JOINT LeftAnkle
				{
					OFFSET 2.64719 -7.27309 0.00000
					CHANNELS 3 Zrotation Yrotation Xrotation
					JOINT LeftToe
					{
						OFFSET 0.20718 -0.56921 2.20259
						CHANNELS 3 Zrotation Yrotation Xrotation
						End Site
						{
							OFFSET 0.00000 -0.00000 1.14243
						}
					}
				}
			}
		}
	}
	JOINT RHipJoint
	{
		OFFSET 0 0 0
		CHANNELS 3 Zrotation Yrotation Xrotation
		JOINT RightHip
		{
			OFFSET -1.40551 -1.84582 0.78394
			CHANNELS 3 Zrotation Yrotation Xrotation
			JOINT RightKnee
			{
				OFFSET -2.56572 -7.04926 0.00000
				CHANNELS 3 Zrotation Yrotation Xrotation
				JOINT RightAnkle
				{
					OFFSET -2.57974 -7.08778 0.00000
					CHANNELS 3 Zrotation Yrotation Xrotation
					JOINT RightToe
					{
						OFFSET -0.26704 -0.73369 2.20815
						CHANNELS 3 Zrotation Yrotation Xrotation
						End Site
						{
							OFFSET -0.00000 -0.00000 1.16246
						}
					}
				}
			}
		}
	}
	JOINT lowerback
	{
		OFFSET 0 0 0
		CHANNELS 3 Zrotation Yrotation Xrotation
		JOINT Chest
		{
			OFFSET -0.04690 2.05196 -0.07017
			CHANNELS 3 Zrotation Yrotation Xrotation
			JOINT Chest2
			{
				OFFSET 0.04085 2.05260 0.00800
				CHANNELS 3 Zrotation Yrotation Xrotation
				JOINT lowerneck
				{
					OFFSET 0 0 0
					CHANNELS 3 Zrotation Yrotation Xrotation
					JOINT Neck
					{
						OFFSET -0.03582 1.80995 0.19301
						CHANNELS 3 Zrotation Yrotation Xrotation
						JOINT Head
						{
							OFFSET 0.00952 1.80195 -0.36389
							CHANNELS 3 Zrotation Yrotation Xrotation
							End Site
							{
								OFFSET 0.00392 1.85062 -0.14494
							}
						}
					}
				}
				JOINT LeftCollar
				{
					OFFSET 0 0 0
					CHANNELS 3 Zrotation Yrotation Xrotation
					JOINT LeftShoulder
					{
						OFFSET 3.55224 1.39726 -0.13667
CHANNELS 3 Zrotation Xrotation Yrotation
						JOINT LeftElbow
						{
OFFSET 0 -5.145070 -0.000000
CHANNELS 3 Zrotation Xrotation Yrotation
							JOINT LeftWrist
							{
OFFSET 0 -3.506460 0.000000
CHANNELS 3 Zrotation Xrotation Yrotation
								JOINT lhand
								{
									OFFSET 0 0 0
CHANNELS 3 Zrotation Xrotation Yrotation
									JOINT LFingers
									{
OFFSET 0 -0.629970 0.000000
CHANNELS 3 Zrotation Xrotation Yrotation
										End Site
										{
OFFSET 0 -0.507900 0.000000
										}
									}
								}
								JOINT LThumb
								{
OFFSET 0 0.000000 0.000000
CHANNELS 3 Zrotation Xrotation Yrotation
									End Site
									{
OFFSET 0 -0.515650 0.515650
									}
								}
							}
						}
					}
				}
				JOINT RightCollar
				{
					OFFSET 0 0 0
					CHANNELS 3 Zrotation Yrotation Xrotation
					JOINT RightShoulder
					{
						OFFSET -3.06467 1.61290 -0.28813
CHANNELS 3 Zrotation Xrotation Yrotation
						JOINT RightElbow
						{
OFFSET 0 -5.232000 -0.000000
CHANNELS 3 Zrotation Xrotation Yrotation
							JOINT RightWrist
							{
OFFSET 0 -3.656410 0.000000
CHANNELS 3 Zrotation Xrotation Yrotation
								JOINT rhand
								{
									OFFSET 0 0 0
CHANNELS 3 Zrotation Xrotation Yrotation
									JOINT RFingers
									{
OFFSET 0 -0.656810 0.000000
CHANNELS 3 Zrotation Xrotation Yrotation
										End Site
										{
OFFSET 0 -0.529530 0.000000
										}
									}
								}
								JOINT RThumb
								{
OFFSET 0 0.000000 0.000000
CHANNELS 3 Zrotation Xrotation Yrotation
									End Site
									{
OFFSET 0 -0.537620 0.537620
									}
								}
							}
						}
					}
				}
			}
		}
	}
}
MOTION
Frames: 8
Frame Time: 0.008333333333333333
-3.359200 14.969900 42.430000 173.979000 -3.456800 -158.394000 0.000000 0.000000 0.000000 -24.158100 -5.197100 11.161400 2.013500 8.894200 25.464800 -0.173400 -8.667200 8.049000 3.366800 -11.266400 -33.183600 0.000000 0.000000 0.000000 5.965800 10.083800 -72.495000 -11.929900 -18.360900 65.766500 -0.994500 1.142200 -18.501000 -1.803600 8.444500 -24.072400 -5.721500 -4.873800 14.399200 2.705400 -7.290800 -2.183400 7.731900 -3.119200 -9.361900 0.173900 1.626800 -17.211000 -3.277800 2.604600 8.136600 -0.815700 1.059100 5.286200 -0.000000 -0.000000 0.000000 5.381200 -12.608000 -48.759300 146.748900 -43.522100 106.405400 20.854700 -12.179300 7.112300 0.000000 0.000000 0.000000 -7.125000 0.000000 0.000000 -4.338100 22.381600 -2.366100 -0.000000 -0.000000 0.000000 -11.150900 52.655500 32.635500 -83.438200 -59.836700 -54.320400 -20.650500 -8.729900 8.381600 0.000000 0.000000 0.000000 7.125000 0.000000 -0.000000 5.388300 38.874900 0.815900
-3.351697 14.974009 42.314104 173.998292 -3.185852 -158.192861 0.000000 0.000000 0.000000 -24.295360 -5.420496 11.102452 1.994279 8.853972 25.339651 0.015663 -7.063308 10.028125 2.559138 -9.628675 -28.036811 0.000000 0.000000 0.000000 5.989272 10.368824 -72.318870 -12.015107 -18.396626 66.036197 -1.036693 0.970571 -18.941468 -1.718357 8.247899 -23.472521 -5.731396 -4.830214 14.466294 2.746878 -7.235603 -2.291508 7.791134 -3.076793 -9.523418 0.189905 1.693394 -17.263482 -3.334176 2.698881 8.139244 -0.826704 1.101471 5.298383 0.000000 0.000000 0.000000 5.380200 -12.532653 -48.858976 147.167647 -43.196277 106.691317 20.800611 -12.172726 7.245130 0.000000 0.000000 0.000000 -7.125000 0.000000 0.000000 -4.377899 22.243161 -2.402005 0.000000 0.000000 0.000000 -11.215957 52.783364 32.589377 -83.525193 -59.840951 -54.395604 -20.648214 -8.914569 8.390496 0.000000 0.000000 0.000000 7.125000 0.000000 0.000000 5.391408 38.884153 0.815114
-3.344195 14.978117 42.198208 174.017584 -2.914905 -157.991723 0.000000 0.000000 0.000000 -24.432620 -5.643892 11.043504 1.975059 8.813745 25.214502 0.204726 -5.459415 12.007250 1.751475 -7.990950 -22.890021 0.000000 0.000000 0.000000 6.012744 10.653847 -72.142740 -12.100314 -18.432352 66.305894 -1.078885 0.798943 -19.381937 -1.633115 8.051297 -22.872642 -5.741292 -4.786628 14.533388 2.788356 -7.180406 -2.399615 7.850368 -3.034386 -9.684936 0.205911 1.759987 -17.315964 -3.390552 2.793163 8.141887 -0.837707 1.143843 5.310565 0.000000 0.000000 0.000000 5.379199 -12.457307 -48.958652 147.586394 -42.870454 106.977234 20.746521 -12.166153 7.377960 0.000000 0.000000 0.000000 -7.125000 0.000000 0.000000 -4.417698 22.104722 -2.437910 0.000000 0.000000 0.000000 -11.281015 52.911228 32.543255 -83.612187 -59.845203 -54.470807 -20.645927 -9.099238 8.399392 0.000000 0.000000 0.000000 7.125000 0.000000 0.000000 5.394516 38.893406 0.814328
-3.336614 14.983345 42.082061 174.050085 -2.658846 -157.793240 0.000000 0.000000 0.000000 -24.547749 -5.884517 10.938562 1.969528 8.801908 25.177873 0.382368 -4.062231 13.849636 1.096330 -6.652731 -18.690804 0.000000 0.000000 0.000000 6.056439 10.932245 -71.972036 -12.179527 -18.465437 66.556504 -1.117187 0.554314 -19.811752 -1.594798 7.960990 -22.598243 -5.726788 -4.748110 14.584042 2.826977 -7.126702 -2.490077 7.889394 -2.996537 -9.820303 0.226518 1.825612 -17.382853 -3.438407 2.883956 8.136075 -0.846988 1.185317 5.322231 0.000000 0.000000 0.000000 5.392269 -12.400962 -49.065428 147.978781 -42.563482 107.244579 20.711003 -12.119171 7.436958 0.000000 0.000000 0.000000 -7.125000 0.000000 0.000000 -4.443815 22.043855 -2.458459 0.000000 0.000000 0.000000 -11.310617 52.993838 32.471232 -83.657436 -59.847401 -54.509931 -20.636972 -9.271523 8.402552 0.000000 0.000000 0.000000 7.125000 0.000000 0.000000 5.402614 38.896091 0.815193
-3.328718 14.993027 41.964915 174.135114 -2.461994 -157.605321 0.000000 0.000000 0.000000 -24.574865 -6.193656 10.650716 2.018437 8.902978 25.493264 0.514591 -3.487075 15.148248 1.047707 -6.505575 -18.259839 0.000000 0.000000 0.000000 6.180551 11.184294 -71.822915 -12.234903 -18.488016 66.731205 -1.140016 0.019386 -20.199203 -1.743098 8.293387 -23.618190 -5.615251 -4.729747 14.569323 2.854236 -7.078936 -2.510370 7.848059 -2.976817 -9.851670 0.265423 1.887382 -17.507037 -3.452376 2.960874 8.096633 -0.849418 1.223222 5.331841 0.000000 0.000000 0.000000 5.461292 -12.420183 -49.200437 148.266341 -42.331476 107.438073 20.749337 -11.911494 7.202344 0.000000 0.000000 0.000000 -7.125000 0.000000 0.000000 -4.415519 22.291473 -2.417946 0.000000 0.000000 0.000000 -11.199223 52.896484 32.296209 -83.536682 -59.841435 -54.405575 -20.601495 -9.394564 8.382902 0.000000 0.000000 0.000000 7.125000 0.000000 0.000000 5.430552 38.872654 0.822624
-3.320823 15.002709 41.847769 174.220142 -2.265143 -157.417401 0.000000 0.000000 0.000000 -24.601981 -6.502794 10.362870 2.067346 9.004047 25.808655 0.646814 -2.911919 16.446860 0.999083 -6.358419 -17.828874 0.000000 0.000000 0.000000 6.304664 11.436342 -71.673794 -12.290278 -18.510595 66.905906 -1.162845 -0.515543 -20.586654 -1.891397 8.625783 -24.638138 -5.503714 -4.711384 14.554604 2.881495 -7.031170 -2.530662 7.806724 -2.957096 -9.883038 0.304329 1.949153 -17.631222 -3.466345 3.037793 8.057191 -0.851847 1.261128 5.341452 0.000000 0.000000 0.000000 5.530315 -12.439404 -49.335447 148.553901 -42.099470 107.631566 20.787671 -11.703818 6.967730 0.000000 0.000000 0.000000 -7.125000 0.000000 0.000000 -4.387224 22.539092 -2.377432 0.000000 0.000000 0.000000 -11.087828 52.799130 32.121186 -83.415927 -59.835469 -54.301219 -20.566019 -9.517605 8.363253 0.000000 0.000000 0.000000 7.125000 0.000000 0.000000 5.458489 38.849218 0.830055
-3.313157 15.009907 41.731757 174.297561 -2.064013 -157.233501 0.000000 0.000000 0.000000 -24.632127 -6.790311 10.049080 2.125056 9.120551 26.174124 0.796940 -2.365563 17.812793 0.952857 -6.214665 -17.409150 0.000000 0.000000 0.000000 6.414362 11.686007 -71.535297 -12.348726 -18.534136 67.089968 -1.183765 -0.966869 -20.934392 -2.041865 8.946393 -25.632357 -5.394876 -4.675404 14.555908 2.895589 -6.962113 -2.537890 7.749064 -2.927755 -9.913673 0.358468 1.996121 -17.828915 -3.475260 3.092127 8.048230 -0.856617 1.287763 5.372095 0.000000 0.000000 0.000000 5.601004 -12.465645 -49.525904 148.793135 -41.905209 107.792080 20.829839 -11.537275 6.812985 0.000000 0.000000 0.000000 -7.125000 0.000000 0.000000 -4.356187 22.701586 -2.344141 0.000000 0.000000 0.000000 -10.866414 52.646286 31.835685 -83.245626 -59.826674 -54.154020 -20.539990 -9.604394 8.375405 0.000000 0.000000 0.000000 7.125000 0.000000 0.000000 5.482465 38.860139 0.832217
-3.305833 15.013408 41.617433 174.363654 -1.856515 -157.055584 0.000000 0.000000 0.000000 -24.666781 -7.045647 9.696677 2.195865 9.260026 26.614128 0.973713 -1.862074 19.278926 0.910200 -6.075976 -17.006158 0.000000 0.000000 0.000000 6.502606 11.932125 -71.412613 -12.411747 -18.559108 67.287963 -1.201842 -1.293764 -21.223024 -2.195559 9.249458 -26.588283 -5.290055 -4.613205 14.581059 2.890087 -6.861365 -2.525671 7.667109 -2.884098 -9.943219 0.435279 2.021058 -18.136018 -3.476653 3.112848 8.084635 -0.864869 1.297623 5.434045 0.000000 0.000000 0.000000 5.674171 -12.502336 -49.798888 148.960441 -41.767127 107.903510 20.877712 -11.431954 6.777116 0.000000 0.000000 0.000000 -7.125000 0.000000 0.000000 -4.321068 22.737384 -2.321597 0.000000 0.000000 0.000000 -10.481250 52.410850 31.385749 -83.001580 -59.813670 -53.943057 -20.528022 -9.637227 8.434889 0.000000 0.000000 0.000000 7.125000 0.000000 0.000000 5.500542 38.922195 0.826537
